<svg width="275" height="60" viewBox="0 0 275 60" xmlns="http://www.w3.org/2000/svg">
  <style>
    @media (prefers-color-scheme: light) {
      .logo-text { fill: url(#twilight-light); }
    }
    @media (prefers-color-scheme: dark) {
      .logo-text { fill: url(#twilight-dark); }
    }
  </style>
  <defs>
    <linearGradient id="twilight-dark" x1="0%" y1="0%" x2="100%" y2="100%">
      <stop offset="0%" stop-color="#A770EF" />
      <stop offset="50%" stop-color="#CF8BF3" />
      <stop offset="100%" stop-color="#FDB99B" />
    </linearGradient>
    <linearGradient id="twilight-light" x1="0%" y1="0%" x2="100%" y2="100%">
      <stop offset="0%" stop-color="#6D28D9" />
      <stop offset="50%" stop-color="#A855F7" />
      <stop offset="100%" stop-color="#EA7B30" />
    </linearGradient>
  </defs>
  <path
    class="logo-text"
    d="M19.91 46.59L19.91 46.59Q14.53 46.59 10.46 44.53Q6.38 42.47 4.12 38.80Q1.85 35.12 1.85 30.25L1.85 30.25Q1.85 25.38 4.12 21.70Q6.38 18.03 10.46 15.97Q14.53 13.91 19.91 13.91L19.91 13.91Q25.28 13.91 29.36 15.97Q33.43 18.03 35.70 21.70Q37.97 25.38 37.97 30.25L37.97 30.25Q37.97 35.12 35.70 38.80Q33.43 42.47 29.36 44.53Q25.28 46.59 19.91 46.59ZM19.91 41.63L19.91 41.63Q23.73 41.63 26.50 40.25Q29.27 38.86 30.81 36.30Q32.34 33.74 32.34 30.25L32.34 30.25Q32.34 26.76 30.81 24.20Q29.27 21.64 26.50 20.25Q23.73 18.87 19.91 18.87L19.91 18.87Q16.13 18.87 13.34 20.25Q10.54 21.64 9.01 24.20Q7.48 26.76 7.48 30.25L7.48 30.25Q7.48 33.74 9.01 36.30Q10.54 38.86 13.34 40.25Q16.13 41.63 19.91 41.63ZM42.71 52.93L42.71 22.23L48.17 22.23L48.17 30.50L47.92 31.34L47.92 36.13L48.17 37.60L48.17 52.93L42.71 52.93ZM46.07 34.11L46.07 34.11Q46.87 30.33 48.72 27.54Q50.57 24.75 53.28 23.19Q55.99 21.64 59.30 21.64L59.30 21.64Q62.79 21.64 65.48 23.21Q68.17 24.79 69.68 27.58Q71.19 30.38 71.19 34.11L71.19 34.11Q71.19 37.81 69.68 40.62Q68.17 43.44 65.48 45.01Q62.79 46.59 59.30 46.59L59.30 46.59Q55.99 46.59 53.30 45.03Q50.61 43.48 48.74 40.67Q46.87 37.85 46.07 34.11ZM65.65 34.11L65.65 34.11Q65.65 31.72 64.66 29.89Q63.67 28.07 61.95 27.04Q60.23 26.01 58.00 26.01L58.00 26.01Q55.78 26.01 53.82 27.04Q51.87 28.07 50.40 29.89Q48.93 31.72 48.01 34.11L48.01 34.11Q48.93 36.51 50.40 38.34Q51.87 40.16 53.82 41.19Q55.78 42.22 58.00 42.22L58.00 42.22Q60.23 42.22 61.95 41.19Q63.67 40.16 64.66 38.34Q65.65 36.51 65.65 34.11ZM88.70 46.59L88.70 46.59Q84.55 46.59 81.31 45.01Q78.08 43.44 76.23 40.62Q74.38 37.81 74.38 34.07L74.38 34.07Q74.38 30.38 76.13 27.58Q77.87 24.79 80.95 23.21Q84.04 21.64 88.03 21.64L88.03 21.64Q92.02 21.64 94.94 23.42Q97.86 25.21 99.46 28.44Q101.05 31.68 101.05 36.05L101.05 36.05L78.67 36.05L78.67 31.89L98.32 31.89L95.59 33.44Q95.47 31.09 94.48 29.41Q93.49 27.73 91.83 26.83Q90.17 25.92 87.91 25.92L87.91 25.92Q85.51 25.92 83.73 26.89Q81.94 27.86 80.93 29.60Q79.93 31.34 79.93 33.74L79.93 33.74Q79.93 36.38 81.12 38.31Q82.32 40.25 84.53 41.27Q86.73 42.30 89.75 42.30L89.75 42.30Q92.48 42.30 95.34 41.44Q98.20 40.58 100.38 39.03L100.38 39.03L100.38 42.98Q98.20 44.66 95.07 45.62Q91.94 46.59 88.70 46.59ZM105.84 30.00L104.41 22.23L109.87 22.23L111.30 30.80L111.30 46L105.84 46L105.84 30.00ZM120.75 21.64L120.75 21.64Q124.11 21.64 126.46 22.98Q128.81 24.33 130.05 26.83Q131.29 29.33 131.29 32.85L131.29 32.85L131.29 46L125.83 46L125.83 33.74Q125.83 30.00 124.09 28.09Q122.35 26.18 118.99 26.18L118.99 26.18Q116.68 26.18 114.93 27.20Q113.19 28.23 112.25 30.08Q111.30 31.93 111.30 34.41L111.30 34.41L109.37 33.36Q109.75 29.66 111.30 27.06Q112.85 24.45 115.29 23.05Q117.73 21.64 120.75 21.64ZM135.45 35.75L135.45 35.75L141.08 35.75Q141.33 37.64 142.65 39.07Q143.98 40.50 146.16 41.27Q148.34 42.05 151.20 42.05L151.20 42.05Q155.44 42.05 157.92 40.73Q160.40 39.41 160.40 37.14L160.40 37.14Q160.40 35.29 158.97 34.37Q157.54 33.44 153.80 32.98L153.80 32.98L147 32.10Q141.29 31.34 138.70 29.26Q136.12 27.18 136.12 23.36L136.12 23.36Q136.12 20.46 137.86 18.34Q139.61 16.22 142.80 15.07Q145.99 13.91 150.28 13.91L150.28 13.91Q154.52 13.91 157.79 15.17Q161.07 16.43 163.02 18.68Q164.98 20.93 165.14 23.95L165.14 23.95L159.52 23.95Q159.31 22.27 158.11 21.05Q156.91 19.83 154.90 19.14Q152.88 18.45 150.15 18.45L150.15 18.45Q146.29 18.45 143.98 19.71Q141.67 20.97 141.67 23.15L141.67 23.15Q141.67 24.83 143.03 25.73Q144.40 26.64 147.80 27.10L147.80 27.10L154.69 28.07Q158.93 28.65 161.38 29.64Q163.84 30.63 164.89 32.29Q165.94 33.95 165.94 36.55L165.94 36.55Q165.94 39.57 164.09 41.84Q162.25 44.11 158.91 45.35Q155.57 46.59 151.12 46.59L151.12 46.59Q146.58 46.59 143.11 45.22Q139.65 43.86 137.63 41.42Q135.62 38.99 135.45 35.75ZM172.87 26.43L167.79 26.43L167.79 23.95L172.87 22.65L175.14 16.01L178.33 16.01L178.33 22.23L189.38 22.23L189.38 26.43L178.33 26.43L178.33 36.72Q178.33 39.70 179.61 40.90Q180.89 42.09 183.79 42.09L183.79 42.09Q185.64 42.09 187.07 41.70Q188.50 41.30 189.80 40.54L189.80 40.54L189.80 45.03Q188.71 45.58 186.71 46.08Q184.72 46.59 182.62 46.59L182.62 46.59Q179.13 46.59 176.99 45.43Q174.85 44.28 173.86 42.24Q172.87 40.20 172.87 37.56L172.87 37.56L172.87 26.43ZM206.93 46.59L206.93 46.59Q202.61 46.59 199.35 45.01Q196.10 43.44 194.27 40.62Q192.44 37.81 192.44 34.11L192.44 34.11Q192.44 30.38 194.27 27.58Q196.10 24.79 199.35 23.21Q202.61 21.64 206.93 21.64L206.93 21.64Q211.26 21.64 214.51 23.21Q217.77 24.79 219.60 27.58Q221.42 30.38 221.42 34.11L221.42 34.11Q221.42 37.81 219.60 40.62Q217.77 43.44 214.51 45.01Q211.26 46.59 206.93 46.59ZM206.93 42.30L206.93 42.30Q209.71 42.30 211.70 41.30Q213.70 40.29 214.79 38.46Q215.88 36.63 215.88 34.11L215.88 34.11Q215.88 31.59 214.79 29.77Q213.70 27.94 211.70 26.93Q209.71 25.92 206.93 25.92L206.93 25.92Q204.20 25.92 202.19 26.93Q200.17 27.94 199.08 29.77Q197.99 31.59 197.99 34.11L197.99 34.11Q197.99 36.63 199.08 38.46Q200.17 40.29 202.19 41.30Q204.20 42.30 206.93 42.30ZM226.17 29.83L224.74 22.23L230.20 22.23L231.63 30.88L231.63 46L226.17 46L226.17 29.83ZM243.68 22.06L243.68 22.06L243.68 26.85Q242.76 26.60 241.67 26.47Q240.58 26.34 239.61 26.34L239.61 26.34Q237.30 26.34 235.49 27.35Q233.69 28.36 232.66 30.35Q231.63 32.35 231.63 35.25L231.63 35.25L230.37 33.69Q230.54 31.17 231.23 28.97Q231.92 26.76 233.16 25.13Q234.40 23.49 236.21 22.56Q238.01 21.64 240.41 21.64L240.41 21.64Q241.25 21.64 242.13 21.74Q243.01 21.85 243.68 22.06ZM252.84 53.52L252.84 53.52Q250.74 53.52 249.04 52.99Q247.34 52.47 245.87 51.54L245.87 51.54L245.87 47.39Q247.46 48.39 248.91 48.86Q250.36 49.32 252.17 49.32L252.17 49.32Q253.89 49.32 255.23 48.54Q256.58 47.76 257.46 45.83L257.46 45.83L268.17 22.23L273.97 22.23L261.66 47.68Q260.65 49.78 259.29 51.06Q257.92 52.34 256.31 52.93Q254.69 53.52 252.84 53.52ZM260.99 45.24L255.57 45.24L244.65 22.23L250.66 22.23L260.99 45.24Z"
  />
</svg>
