<svg width="173" height="173" viewBox="0 0 173 173" xmlns="http://www.w3.org/2000/svg">
  <defs>
    <linearGradient id="tw-dark" x1="0%" y1="0%" x2="100%" y2="100%">
      <stop offset="0%" stop-color="#A770EF"/>
      <stop offset="50%" stop-color="#CF8BF3"/>
      <stop offset="100%" stop-color="#FDB99B"/>
    </linearGradient>
    <linearGradient id="tw-light" x1="0%" y1="0%" x2="100%" y2="100%">
      <stop offset="0%" stop-color="#6D28D9"/>
      <stop offset="50%" stop-color="#A855F7"/>
      <stop offset="100%" stop-color="#EA7B30"/>
    </linearGradient>
    <style>
      .mark { fill: url(#tw-dark); }
      @media (prefers-color-scheme: light) {
        .mark { fill: url(#tw-light); }
      }
    </style>
  </defs>
  <path class="mark" d="M86.50 133.18L86.50 133.18Q71.14 133.18 59.50 127.30Q47.86 121.42 41.38 110.92Q34.90 100.42 34.90 86.50L34.90 86.50Q34.90 72.58 41.38 62.08Q47.86 51.58 59.50 45.70Q71.14 39.82 86.50 39.82L86.50 39.82Q101.86 39.82 113.50 45.70Q125.14 51.58 131.62 62.08Q138.10 72.58 138.10 86.50L138.10 86.50Q138.10 100.42 131.62 110.92Q125.14 121.42 113.50 127.30Q101.86 133.18 86.50 133.18ZM86.50 119.02L86.50 119.02Q97.42 119.02 105.34 115.06Q113.26 111.10 117.64 103.78Q122.02 96.46 122.02 86.50L122.02 86.50Q122.02 76.54 117.64 69.22Q113.26 61.90 105.34 57.94Q97.42 53.98 86.50 53.98L86.50 53.98Q75.70 53.98 67.72 57.94Q59.74 61.90 55.36 69.22Q50.98 76.54 50.98 86.50L50.98 86.50Q50.98 96.46 55.36 103.78Q59.74 111.10 67.72 115.06Q75.70 119.02 86.50 119.02Z"/>
</svg>